# xmcd
# 
# Track frame offsets:
#     150
#     16340
#     30565
#     48848
#     70455
#     92885
#     115515
#     120885
#     138488
#     158590
#     173510
#     191045
#     209873
# 
# Disc length: 3011
# 
# Revision: 4
# Processed by: cddbd v1.5.2PL0 Copyright (c) Steve Scherf et al.
# Submitted via: fre:ac v1.0.17
# 
DISCID=a90bc10d
DTITLE=Deacon Blue - When The World Knows Your Name
DYEAR=1989
DGENRE=Pop
TTITLE0=Queen Of The New Year
TTITLE1=Wages Day
TTITLE2=Real Gone Kid
TTITLE3=Love And Regret
TTITLE4=Circus Lights
TTITLE5=This Changing Light
TTITLE6=Sad Loved Girl
TTITLE7=Fergus Sings The Blues
TTITLE8=The World Is Lit By Lightning
TTITLE9=Silhouette
TTITLE10=One Hundred Things
TTITLE11=Your Constant Heart
TTITLE12=Orphans
EXTD=
EXTT0=
EXTT1=
EXTT2=
EXTT3=
EXTT4=
EXTT5=
EXTT6=
EXTT7=
EXTT8=
EXTT9=
EXTT10=
EXTT11=
EXTT12=
PLAYORDER=
